# xmcd
#
# Track frame offsets: 
#        150
#        15766
#        30405
#        45188
#        72585
#        85868
#        102736
#        118751
#        134638
#        149662
#        164626
#        183019
#        199667
#        231200
#        246651
#        264332
#
# Disc length: 3771 seconds
#
# Revision: 0
# Processed by: cddbd v1.5.2PL0 Copyright (c) Steve Scherf et al.
# Submitted via: ExactAudioCopy v0.99pb5
#
DISCID=e30eb910
DTITLE=T. Graham Brown - Live at Billy Bob's Texas
DYEAR=2004
DGENRE=Country
TTITLE0=Darlene 
TTITLE1=Whole Lotta Lovin' 
TTITLE2=I Tell It Like It Used to Be 
TTITLE3=Memphis Women and Chicken 
TTITLE4=Brilliant Conversationalist 
TTITLE5=Wine into Water
TTITLE6=Ain't No Dust on Me 
TTITLE7=RFD 30529 
TTITLE8=Come as You Were 
TTITLE9=Monkey 
TTITLE10=Moon Shadow Road 
TTITLE11=634-5789 (Soulsville, U.S.A.) 
TTITLE12=Use the Blues 
TTITLE13=Hell and High Water 
TTITLE14=Don't Go to Strangers 
TTITLE15=Hide and Seek 
EXTD=
EXTT0=
EXTT1=
EXTT2=
EXTT3=
EXTT4=
EXTT5=
EXTT6=
EXTT7=
EXTT8=
EXTT9=
EXTT10=
EXTT11=
EXTT12=
EXTT13=
EXTT14=
EXTT15=
PLAYORDER=
